<svg xmlns="http://www.w3.org/2000/svg" viewBox="0 0 440 100" width="440" height="100"><path transform="translate(0,86)" d="M23.700000000000003 0.0V-59.300000000000004H1.0V-72.0H60.0V-59.300000000000004H37.300000000000004V0.0Z M81.0 1.5Q75.2 1.5 71.17500000000001 -0.7250000000000001Q67.15 -2.95 65.075 -6.675000000000001Q63.0 -10.4 63.0 -14.9Q63.0 -18.650000000000002 64.15 -21.75Q65.3 -24.85 67.875 -27.225Q70.45 -29.6 74.8 -31.200000000000003Q77.8 -32.300000000000004 81.94999999999999 -33.150000000000006Q86.1 -34.0 91.35 -34.775000000000006Q96.6 -35.550000000000004 102.9 -36.5L98.0 -33.800000000000004Q98.0 -38.6 95.7 -40.85Q93.4 -43.1 88.0 -43.1Q85.0 -43.1 81.75 -41.650000000000006Q78.5 -40.2 77.2 -36.5L64.9 -40.400000000000006Q66.95 -47.1 72.6 -51.3Q78.25 -55.5 88.0 -55.5Q95.15 -55.5 100.7 -53.3Q106.25 -51.1 109.1 -45.7Q110.7 -42.7 111.0 -39.7Q111.30000000000001 -36.7 111.30000000000001 -33.0V0.0H99.4V-11.100000000000001L101.1 -8.8Q97.15 -3.35 92.575 -0.925Q88.0 1.5 81.0 1.5ZM83.9 -9.200000000000001Q87.65 -9.200000000000001 90.22500000000001 -10.525000000000002Q92.80000000000001 -11.850000000000001 94.325 -13.55Q95.85 -15.25 96.4 -16.400000000000002Q97.45 -18.6 97.625 -21.525000000000002Q97.80000000000001 -24.450000000000003 97.80000000000001 -26.400000000000002L101.80000000000001 -25.400000000000002Q95.75 -24.400000000000002 92.0 -23.725Q88.25 -23.05 85.95 -22.5Q83.65 -21.950000000000003 81.9 -21.3Q79.9 -20.5 78.67500000000001 -19.575000000000003Q77.45 -18.650000000000002 76.875 -17.55Q76.3 -16.45 76.3 -15.100000000000001Q76.3 -13.25 77.225 -11.925Q78.15 -10.600000000000001 79.85 -9.900000000000002Q81.55 -9.200000000000001 83.9 -9.200000000000001Z M145.4 25.5Q140.8 25.5 136.65 24.025Q132.5 22.55 129.22500000000002 19.925Q125.95000000000002 17.3 123.9 13.8L136.5 7.7Q137.8 10.100000000000001 140.22500000000002 11.350000000000001Q142.65 12.600000000000001 145.5 12.600000000000001Q148.55 12.600000000000001 151.25 11.575000000000001Q153.95000000000002 10.55 155.57500000000002 8.525Q157.20000000000002 6.5 157.10000000000002 3.5V-12.200000000000001H158.8V-54.0H170.70000000000002V3.7Q170.70000000000002 5.7 170.52500000000003 7.475Q170.35000000000002 9.25 169.9 11.0Q168.60000000000002 15.950000000000001 165.07500000000002 19.150000000000002Q161.55 22.35 156.45000000000002 23.925Q151.35000000000002 25.5 145.4 25.5ZM144.20000000000002 1.5Q136.75 1.5 131.15 -2.25Q125.55000000000001 -6.0 122.42500000000001 -12.450000000000001Q119.30000000000001 -18.900000000000002 119.30000000000001 -27.0Q119.30000000000001 -35.25 122.47500000000001 -41.675Q125.65 -48.1 131.4 -51.8Q137.15 -55.5 144.9 -55.5Q152.60000000000002 -55.5 157.85000000000002 -51.75Q163.10000000000002 -48.0 165.8 -41.55Q168.5 -35.1 168.5 -27.0Q168.5 -18.900000000000002 165.775 -12.450000000000001Q163.05 -6.0 157.65 -2.25Q152.25 1.5 144.20000000000002 1.5ZM146.4 -10.600000000000001Q150.95000000000002 -10.600000000000001 153.675 -12.650000000000002Q156.4 -14.700000000000001 157.60000000000002 -18.400000000000002Q158.8 -22.1 158.8 -27.0Q158.8 -31.900000000000002 157.60000000000002 -35.6Q156.4 -39.300000000000004 153.775 -41.35000000000001Q151.15 -43.400000000000006 146.9 -43.400000000000006Q142.35000000000002 -43.400000000000006 139.425 -41.175000000000004Q136.5 -38.95 135.10000000000002 -35.225Q133.70000000000002 -31.5 133.70000000000002 -27.0Q133.70000000000002 -22.450000000000003 135.05 -18.725Q136.4 -15.0 139.2 -12.8Q142.0 -10.600000000000001 146.4 -10.600000000000001Z M247.70000000000002 0.0V-31.900000000000002Q247.70000000000002 -37.25 245.175 -40.225Q242.65000000000003 -43.2 238.20000000000002 -43.2Q235.35000000000002 -43.2 233.25000000000003 -41.875Q231.15000000000003 -40.550000000000004 229.97500000000002 -38.175000000000004Q228.8 -35.800000000000004 228.8 -32.7L223.10000000000002 -36.5Q223.10000000000002 -42.050000000000004 225.72500000000002 -46.300000000000004Q228.35000000000002 -50.550000000000004 232.77500000000003 -52.925000000000004Q237.20000000000002 -55.300000000000004 242.60000000000002 -55.300000000000004Q251.85000000000002 -55.300000000000004 256.57500000000005 -49.825Q261.3 -44.35 261.3 -35.5V0.0ZM182.60000000000002 0.0V-54.0H194.60000000000002V-36.1H196.3V0.0ZM215.20000000000002 0.0V-31.900000000000002Q215.20000000000002 -37.25 212.675 -40.225Q210.15000000000003 -43.2 205.70000000000002 -43.2Q201.45000000000002 -43.2 198.875 -40.275000000000006Q196.3 -37.35 196.3 -32.7L190.60000000000002 -36.7Q190.60000000000002 -42.0 193.25000000000003 -46.2Q195.90000000000003 -50.400000000000006 200.37500000000003 -52.85000000000001Q204.85000000000002 -55.300000000000004 210.40000000000003 -55.300000000000004Q216.75000000000003 -55.300000000000004 220.82500000000005 -52.60000000000001Q224.90000000000003 -49.900000000000006 226.85000000000002 -45.400000000000006Q228.8 -40.900000000000006 228.8 -35.5V0.0Z M287.3 1.5Q281.5 1.5 277.475 -0.7250000000000001Q273.45 -2.95 271.375 -6.675000000000001Q269.3 -10.4 269.3 -14.9Q269.3 -18.650000000000002 270.45000000000005 -21.75Q271.6 -24.85 274.175 -27.225Q276.75 -29.6 281.1 -31.200000000000003Q284.1 -32.300000000000004 288.25 -33.150000000000006Q292.40000000000003 -34.0 297.65000000000003 -34.775000000000006Q302.90000000000003 -35.550000000000004 309.20000000000005 -36.5L304.3 -33.800000000000004Q304.3 -38.6 302.0 -40.85Q299.7 -43.1 294.3 -43.1Q291.3 -43.1 288.05 -41.650000000000006Q284.8 -40.2 283.5 -36.5L271.2 -40.400000000000006Q273.25 -47.1 278.9 -51.3Q284.55 -55.5 294.3 -55.5Q301.45 -55.5 307.0 -53.3Q312.55 -51.1 315.40000000000003 -45.7Q317.0 -42.7 317.3 -39.7Q317.6 -36.7 317.6 -33.0V0.0H305.70000000000005V-11.100000000000001L307.40000000000003 -8.8Q303.45 -3.35 298.875 -0.925Q294.3 1.5 287.3 1.5ZM290.2 -9.200000000000001Q293.95 -9.200000000000001 296.525 -10.525000000000002Q299.1 -11.850000000000001 300.625 -13.55Q302.15000000000003 -15.25 302.7 -16.400000000000002Q303.75 -18.6 303.925 -21.525000000000002Q304.1 -24.450000000000003 304.1 -26.400000000000002L308.1 -25.400000000000002Q302.05 -24.400000000000002 298.3 -23.725Q294.55 -23.05 292.25 -22.5Q289.95 -21.950000000000003 288.2 -21.3Q286.2 -20.5 284.975 -19.575000000000003Q283.75 -18.650000000000002 283.175 -17.55Q282.6 -16.45 282.6 -15.100000000000001Q282.6 -13.25 283.525 -11.925Q284.45 -10.600000000000001 286.15 -9.900000000000002Q287.85 -9.200000000000001 290.2 -9.200000000000001Z M361.0 0.0Q355.40000000000003 1.05 350.02500000000003 0.925Q344.65000000000003 0.8 340.42500000000007 -0.975Q336.20000000000005 -2.75 334.0 -6.7Q332.0 -10.4 331.9 -14.225000000000001Q331.8 -18.05 331.8 -22.900000000000002V-69.0H345.40000000000003V-23.700000000000003Q345.40000000000003 -20.55 345.475 -18.025Q345.55 -15.5 346.5 -14.0Q348.3 -11.15 352.25 -10.9Q356.20000000000005 -10.65 361.0 -11.3ZM322.6 -43.5V-54.0H361.0V-43.5Z M403.4 0.0Q397.8 1.05 392.425 0.925Q387.05 0.8 382.82500000000005 -0.975Q378.6 -2.75 376.4 -6.7Q374.4 -10.4 374.29999999999995 -14.225000000000001Q374.2 -18.05 374.2 -22.900000000000002V-69.0H387.8V-23.700000000000003Q387.8 -20.55 387.875 -18.025Q387.95 -15.5 388.9 -14.0Q390.7 -11.15 394.65 -10.9Q398.6 -10.65 403.4 -11.3ZM365.0 -43.5V-54.0H403.4V-43.5Z M414.4 -61.5V-73.5H428.0V-61.5ZM414.4 0.0V-54.0H428.0V0.0Z" fill="#ececef"/></svg>
